<mxfile host="app.diagrams.net" agent="Mozilla/5.0 (Windows NT 10.0; Win64; x64) AppleWebKit/537.36 (KHTML, like Gecko) Chrome/135.0.0.0 Safari/537.36" version="26.2.9">
  <diagram name="Страница — 1" id="HcCZiuEi5tW-0oh6SXAI">
    <mxGraphModel grid="1" page="1" gridSize="10" guides="1" tooltips="1" connect="1" arrows="1" fold="1" pageScale="1" pageWidth="827" pageHeight="1169" math="0" shadow="0">
      <root>
        <mxCell id="0" />
        <mxCell id="1" parent="0" />
        <mxCell id="Twm0sDJtdAsQGTrZHmIN-2" value="Користувач" style="shape=umlActor;verticalLabelPosition=bottom;verticalAlign=top;html=1;outlineConnect=0;" vertex="1" parent="1">
          <mxGeometry x="115" y="20" width="30" height="60" as="geometry" />
        </mxCell>
        <mxCell id="Twm0sDJtdAsQGTrZHmIN-3" value="Звіти та аналітика" style="ellipse;whiteSpace=wrap;html=1;" vertex="1" parent="1">
          <mxGeometry x="70" y="150" width="120" height="80" as="geometry" />
        </mxCell>
        <mxCell id="Twm0sDJtdAsQGTrZHmIN-4" value="" style="endArrow=classic;html=1;rounded=0;entryX=0.5;entryY=0;entryDx=0;entryDy=0;" edge="1" parent="1" target="Twm0sDJtdAsQGTrZHmIN-3">
          <mxGeometry width="50" height="50" relative="1" as="geometry">
            <mxPoint x="130" y="110" as="sourcePoint" />
            <mxPoint x="205" y="80" as="targetPoint" />
          </mxGeometry>
        </mxCell>
        <mxCell id="Twm0sDJtdAsQGTrZHmIN-5" value="include" style="edgeStyle=orthogonalEdgeStyle;rounded=0;orthogonalLoop=1;jettySize=auto;html=1;exitX=0.5;exitY=1;exitDx=0;exitDy=0;entryX=0.5;entryY=0;entryDx=0;entryDy=0;" edge="1" parent="1" source="Twm0sDJtdAsQGTrZHmIN-6" target="Twm0sDJtdAsQGTrZHmIN-8">
          <mxGeometry relative="1" as="geometry" />
        </mxCell>
        <mxCell id="Twm0sDJtdAsQGTrZHmIN-6" value="&lt;div&gt;Введення даних та вибір типу&lt;/div&gt;" style="ellipse;whiteSpace=wrap;html=1;" vertex="1" parent="1">
          <mxGeometry x="70" y="290" width="120" height="80" as="geometry" />
        </mxCell>
        <mxCell id="Twm0sDJtdAsQGTrZHmIN-7" value="include" style="endArrow=classic;html=1;rounded=0;entryX=0.5;entryY=0;entryDx=0;entryDy=0;" edge="1" parent="1" source="Twm0sDJtdAsQGTrZHmIN-3" target="Twm0sDJtdAsQGTrZHmIN-6">
          <mxGeometry width="50" height="50" relative="1" as="geometry">
            <mxPoint x="215" y="280" as="sourcePoint" />
            <mxPoint x="275" y="260" as="targetPoint" />
          </mxGeometry>
        </mxCell>
        <mxCell id="Twm0sDJtdAsQGTrZHmIN-8" value="Параметри фільтрації" style="ellipse;whiteSpace=wrap;html=1;" vertex="1" parent="1">
          <mxGeometry x="70" y="410" width="120" height="80" as="geometry" />
        </mxCell>
        <mxCell id="Twm0sDJtdAsQGTrZHmIN-9" value="Авторизація" style="ellipse;whiteSpace=wrap;html=1;" vertex="1" parent="1">
          <mxGeometry x="320" y="80" width="120" height="80" as="geometry" />
        </mxCell>
        <mxCell id="Twm0sDJtdAsQGTrZHmIN-10" value="" style="endArrow=classic;html=1;rounded=0;" edge="1" parent="1" target="Twm0sDJtdAsQGTrZHmIN-9">
          <mxGeometry width="50" height="50" relative="1" as="geometry">
            <mxPoint x="200" y="80" as="sourcePoint" />
            <mxPoint x="130" y="240" as="targetPoint" />
          </mxGeometry>
        </mxCell>
        <mxCell id="Twm0sDJtdAsQGTrZHmIN-11" value="extend" style="endArrow=classic;html=1;rounded=0;entryX=0.225;entryY=0.038;entryDx=0;entryDy=0;entryPerimeter=0;" edge="1" parent="1" source="Twm0sDJtdAsQGTrZHmIN-9" target="Twm0sDJtdAsQGTrZHmIN-12">
          <mxGeometry width="50" height="50" relative="1" as="geometry">
            <mxPoint x="380" y="250" as="sourcePoint" />
            <mxPoint x="460" y="150" as="targetPoint" />
          </mxGeometry>
        </mxCell>
        <mxCell id="Twm0sDJtdAsQGTrZHmIN-12" value="Помилка авторизації" style="ellipse;whiteSpace=wrap;html=1;" vertex="1" parent="1">
          <mxGeometry x="510" y="140" width="120" height="80" as="geometry" />
        </mxCell>
        <mxCell id="Twm0sDJtdAsQGTrZHmIN-16" value="" style="endArrow=classic;html=1;rounded=0;" edge="1" parent="1">
          <mxGeometry width="50" height="50" relative="1" as="geometry">
            <mxPoint x="193" y="450" as="sourcePoint" />
            <mxPoint x="260" y="470" as="targetPoint" />
          </mxGeometry>
        </mxCell>
        <mxCell id="Twm0sDJtdAsQGTrZHmIN-17" value="include" style="endArrow=classic;html=1;rounded=0;exitX=0.5;exitY=1;exitDx=0;exitDy=0;" edge="1" parent="1" source="Twm0sDJtdAsQGTrZHmIN-18">
          <mxGeometry width="50" height="50" relative="1" as="geometry">
            <mxPoint x="325" y="535" as="sourcePoint" />
            <mxPoint x="360" y="620" as="targetPoint" />
          </mxGeometry>
        </mxCell>
        <mxCell id="Twm0sDJtdAsQGTrZHmIN-18" value="Генерація звіту" style="ellipse;whiteSpace=wrap;html=1;" vertex="1" parent="1">
          <mxGeometry x="260" y="455" width="120" height="70" as="geometry" />
        </mxCell>
        <mxCell id="Twm0sDJtdAsQGTrZHmIN-20" value="extend" style="endArrow=classic;html=1;rounded=0;entryX=0;entryY=0.5;entryDx=0;entryDy=0;" edge="1" parent="1" target="Twm0sDJtdAsQGTrZHmIN-21">
          <mxGeometry width="50" height="50" relative="1" as="geometry">
            <mxPoint x="380" y="490" as="sourcePoint" />
            <mxPoint x="440" y="490" as="targetPoint" />
            <mxPoint as="offset" />
          </mxGeometry>
        </mxCell>
        <mxCell id="Twm0sDJtdAsQGTrZHmIN-21" value="Відхилення через відсутність даних" style="ellipse;whiteSpace=wrap;html=1;" vertex="1" parent="1">
          <mxGeometry x="470" y="450" width="120" height="80" as="geometry" />
        </mxCell>
        <mxCell id="Twm0sDJtdAsQGTrZHmIN-22" value="extend" style="endArrow=classic;html=1;rounded=0;" edge="1" parent="1">
          <mxGeometry width="50" height="50" relative="1" as="geometry">
            <mxPoint x="160" y="489.5" as="sourcePoint" />
            <mxPoint x="230" y="550" as="targetPoint" />
          </mxGeometry>
        </mxCell>
        <mxCell id="Twm0sDJtdAsQGTrZHmIN-23" value="extend" style="endArrow=classic;html=1;rounded=0;" edge="1" parent="1">
          <mxGeometry width="50" height="50" relative="1" as="geometry">
            <mxPoint x="100" y="490" as="sourcePoint" />
            <mxPoint x="60" y="560" as="targetPoint" />
          </mxGeometry>
        </mxCell>
        <mxCell id="Twm0sDJtdAsQGTrZHmIN-24" value="&lt;font face=&quot;Helvetica&quot;&gt;&lt;span id=&quot;docs-internal-guid-81888189-7fff-0865-a665-e7b756911eb8&quot; style=&quot;&quot;&gt;&lt;span style=&quot;color: rgb(0, 0, 0); background-color: transparent; font-style: normal; font-variant: normal; text-decoration: none; vertical-align: baseline; white-space: pre-wrap;&quot;&gt;Ввід &lt;/span&gt;&lt;span style=&quot;color: rgb(0, 0, 0); background-color: transparent; font-style: normal; font-variant: normal; text-decoration: none; vertical-align: baseline; white-space: pre-wrap;&quot;&gt;неповних &lt;/span&gt;&lt;span style=&quot;color: rgb(0, 0, 0); background-color: transparent; font-style: normal; font-variant: normal; text-decoration: none; vertical-align: baseline; white-space: pre-wrap;&quot;&gt;даних&lt;/span&gt;&lt;span style=&quot;color: rgb(0, 0, 0); background-color: transparent; font-style: normal; font-variant: normal; text-decoration: none; vertical-align: baseline; white-space: pre-wrap;&quot;&gt; &lt;/span&gt;&lt;/span&gt;&lt;/font&gt;" style="ellipse;whiteSpace=wrap;html=1;" vertex="1" parent="1">
          <mxGeometry x="10" y="560" width="120" height="80" as="geometry" />
        </mxCell>
        <mxCell id="Twm0sDJtdAsQGTrZHmIN-25" value="&lt;span style=&quot;white-space-collapse: preserve;&quot;&gt;Некоректні дані&lt;/span&gt;" style="ellipse;whiteSpace=wrap;html=1;" vertex="1" parent="1">
          <mxGeometry x="170" y="550" width="120" height="80" as="geometry" />
        </mxCell>
        <mxCell id="Twm0sDJtdAsQGTrZHmIN-27" value="Перевантаження сервера" style="ellipse;whiteSpace=wrap;html=1;" vertex="1" parent="1">
          <mxGeometry x="460" y="545" width="120" height="80" as="geometry" />
        </mxCell>
        <mxCell id="Twm0sDJtdAsQGTrZHmIN-28" value="extend" style="endArrow=classic;html=1;rounded=0;exitX=1;exitY=1;exitDx=0;exitDy=0;" edge="1" parent="1" source="Twm0sDJtdAsQGTrZHmIN-18">
          <mxGeometry width="50" height="50" relative="1" as="geometry">
            <mxPoint x="390" y="500" as="sourcePoint" />
            <mxPoint x="460" y="560" as="targetPoint" />
            <mxPoint as="offset" />
          </mxGeometry>
        </mxCell>
        <mxCell id="Twm0sDJtdAsQGTrZHmIN-29" value="Перегляд додаткової інформації" style="ellipse;whiteSpace=wrap;html=1;" vertex="1" parent="1">
          <mxGeometry x="310" y="620" width="120" height="70" as="geometry" />
        </mxCell>
        <mxCell id="Twm0sDJtdAsQGTrZHmIN-30" value="include" style="endArrow=classic;html=1;rounded=0;" edge="1" parent="1">
          <mxGeometry width="50" height="50" relative="1" as="geometry">
            <mxPoint x="340" y="690" as="sourcePoint" />
            <mxPoint x="290" y="750" as="targetPoint" />
          </mxGeometry>
        </mxCell>
        <mxCell id="Twm0sDJtdAsQGTrZHmIN-31" value="Експорт&amp;nbsp;" style="ellipse;whiteSpace=wrap;html=1;" vertex="1" parent="1">
          <mxGeometry x="240" y="750" width="120" height="80" as="geometry" />
        </mxCell>
        <mxCell id="Twm0sDJtdAsQGTrZHmIN-32" value="include" style="endArrow=classic;html=1;rounded=0;exitX=0.5;exitY=1;exitDx=0;exitDy=0;" edge="1" parent="1">
          <mxGeometry width="50" height="50" relative="1" as="geometry">
            <mxPoint x="401" y="686" as="sourcePoint" />
            <mxPoint x="436" y="766" as="targetPoint" />
          </mxGeometry>
        </mxCell>
        <mxCell id="Twm0sDJtdAsQGTrZHmIN-33" value="Зберегти налаштування&amp;nbsp;" style="ellipse;whiteSpace=wrap;html=1;" vertex="1" parent="1">
          <mxGeometry x="400" y="760" width="120" height="80" as="geometry" />
        </mxCell>
      </root>
    </mxGraphModel>
  </diagram>
</mxfile>
